# xmcd
#
# Track frame offsets: 
#        150
#        13230
#        25665
#        37065
#        51975
#        61552
#        72042
#        83715
#        96975
#        110232
#        121080
#        137225
#        150642
#        163437
#        176397
#
# Disc length: 2563 seconds
#
# Revision: 2
# Processed by: cddbd v1.5.2PL0 Copyright (c) Steve Scherf et al.
# Submitted via: ExactAudioCopy v0.99pb5
#
DISCID=c90a010f
DTITLE=Various Artist - Classic Country Vol. 14 1969-1975 Disc 2
DYEAR=1999
DGENRE=Country
TTITLE0=Merle Haggard - The Fightin' Side Of Me
TTITLE1=Tom T. Hall - The Year That Clayton Delaney Died
TTITLE2=Loretta Lynn And Conway Twitty - Louisiana Woman Mississippi M
TTITLE2=an
TTITLE3=Don Gibson - Woman (Sensuous Woman)
TTITLE4=Freddie Hart - My Hang-Up Is You
TTITLE5=Johnny Rodriguez - You Always Come Back (To Hurting Me)
TTITLE6=Sonny James - It's Just A Matter Of Time
TTITLE7=Dolly Parton - I Will Always Love You
TTITLE8=Johnny Paycheck - She's All I Got
TTITLE9=Ronnie Milsap - Daydreams About Night Things
TTITLE10=Billie Jo Spears - Blanket On The Ground
TTITLE11=Conway Twitty - There's A Honky Tonk Angel (Who'll Take Me Ba
TTITLE11=ck In)
TTITLE12=Mickey Gilley - Room Full Of Roses
TTITLE13=Jack Blanchard And Misty Morgan - Tennessee Bird Walk
TTITLE14=Narvel Felts - Reconsider Me
EXTD=
EXTT0=
EXTT1=
EXTT2=
EXTT3=
EXTT4=
EXTT5=
EXTT6=
EXTT7=
EXTT8=
EXTT9=
EXTT10=
EXTT11=
EXTT12=
EXTT13=
EXTT14=
PLAYORDER=
